<?xml version="1.0" standalone="no"?>
<!DOCTYPE svg PUBLIC "-//W3C//DTD SVG 20010904//EN"
 "http://www.w3.org/TR/2001/REC-SVG-20010904/DTD/svg10.dtd">
<svg version="1.0" xmlns="http://www.w3.org/2000/svg"
 width="600.000000pt" height="587.000000pt" viewBox="0 0 600.000000 587.000000"
 preserveAspectRatio="xMidYMid meet">
<metadata>
Created by potrace 1.15, written by Peter Selinger 2001-2017
</metadata>
<g transform="translate(0.000000,587.000000) scale(0.100000,-0.100000)"
fill="#000000" stroke="none">
<path d="M148 4438 c-2 -557 -2 -1633 0 -2390 l2 -1378 90 0 90 0 0 1260 c0
693 2 1260 5 1260 2 0 515 -511 1139 -1135 1078 -1078 1137 -1135 1171 -1135
35 0 35 0 35 43 0 31 -5 46 -20 57 -11 8 -20 18 -20 23 0 10 -26 37 -35 37 -8
0 -35 27 -35 35 0 8 -27 35 -35 35 -8 0 -55 47 -55 55 0 8 -27 35 -35 35 -8 0
-55 47 -55 55 0 8 -27 35 -35 35 -8 0 -55 47 -55 55 0 8 -27 35 -35 35 -10 0
-55 48 -55 60 0 5 -5 10 -10 10 -12 0 -60 45 -60 55 0 8 -27 35 -35 35 -8 0
-55 47 -55 55 0 8 -27 35 -35 35 -8 0 -55 47 -55 55 0 8 -27 35 -35 35 -8 0
-55 47 -55 55 0 8 -27 35 -35 35 -8 0 -35 27 -35 35 0 8 -27 35 -35 35 -8 0
-55 47 -55 55 0 8 -27 35 -35 35 -8 0 -55 47 -55 55 0 8 -27 35 -35 35 -8 0
-55 47 -55 55 0 8 -27 35 -35 35 -8 0 -55 47 -55 55 0 8 -27 35 -35 35 -8 0
-35 27 -35 35 0 8 -27 35 -35 35 -8 0 -55 47 -55 55 0 8 -27 35 -35 35 -8 0
-55 47 -55 55 0 8 -27 35 -35 35 -8 0 -55 47 -55 55 0 8 -27 35 -35 35 -10 0
-55 48 -55 60 0 5 -5 10 -10 10 -12 0 -60 45 -60 55 0 9 -27 35 -35 35 -10 0
-75 72 -75 82 0 4 -5 8 -10 8 -14 0 -60 46 -60 60 0 5 -4 10 -8 10 -10 0 -82
65 -82 75 0 8 -26 35 -35 35 -8 0 -35 27 -35 35 0 8 -27 35 -35 35 -8 0 -55
47 -55 55 0 8 -27 35 -34 35 -3 0 -37 32 -76 71 l-71 71 3 71 3 72 1105 805
c1103 804 1145 837 1088 848 -21 4 66 66 -1193 -851 l-1000 -729 -3 941 -2
941 -90 0 -90 0 -2 -1012z"/>
<path d="M3142 3058 l3 -2393 1395 -3 c767 -1 1405 0 1418 3 29 7 29 41 0 51
-12 3 -606 3 -1320 -1 l-1298 -7 0 2371 0 2371 -100 0 -100 0 2 -2392z"/>
</g>
</svg>
